<?xml version="1.0" standalone="no"?>
<!DOCTYPE svg PUBLIC "-//W3C//DTD SVG 20010904//EN"
 "http://www.w3.org/TR/2001/REC-SVG-20010904/DTD/svg10.dtd">
<svg version="1.0" xmlns="http://www.w3.org/2000/svg"
 width="1000.000000pt" height="1000.000000pt" viewBox="0 0 1000.000000 1000.000000"
 preserveAspectRatio="xMidYMid meet">
<metadata>
Created by potrace 1.11, written by Peter Selinger 2001-2013
</metadata>
<g transform="translate(0.000000,1000.000000) scale(0.100000,-0.100000)"
fill="#000000" stroke="none">
<path d="M2185 8293 c7 -56 21 -293 30 -518 2 -55 7 -311 10 -570 4 -258 11
-472 15 -475 11 -7 278 -5 285 2 6 6 12 43 20 136 4 35 8 71 10 82 2 10 6 51
10 92 3 40 8 84 10 98 6 42 15 122 20 180 3 30 7 66 9 80 3 14 8 43 11 65 24
172 45 245 78 282 25 28 92 50 177 58 36 4 76 8 90 10 14 2 68 7 120 10 52 4
124 9 160 11 127 10 1290 16 1291 8 4 -31 8 -103 14 -279 4 -110 9 -238 11
-285 28 -767 20 -4746 -10 -5010 -34 -285 -52 -335 -149 -397 -86 -55 -262
-78 -662 -87 l-120 -3 -3 -155 -2 -155 92 3 c51 1 188 5 303 8 116 3 325 9
465 13 300 9 1190 9 1370 0 69 -4 197 -9 285 -12 88 -4 188 -8 223 -9 l62 -3
0 153 c0 116 -3 154 -12 155 -7 0 -53 2 -103 4 -226 9 -374 16 -396 20 -13 2
-49 6 -79 10 -96 10 -147 28 -221 78 -97 65 -120 190 -136 727 -11 340 -10
4474 1 4695 10 229 20 376 31 485 2 14 3 31 4 39 1 11 78 13 484 7 265 -3 514
-8 552 -10 39 -3 120 -7 180 -10 171 -9 258 -15 440 -32 127 -12 176 -51 190
-150 3 -22 7 -48 10 -59 5 -25 13 -92 20 -165 7 -80 14 -148 20 -205 5 -52 12
-139 20 -240 3 -33 8 -96 11 -140 4 -44 7 -86 7 -92 0 -7 3 -13 6 -14 24 -4
301 -3 302 1 3 14 8 161 13 375 4 132 9 283 11 335 7 180 16 355 20 420 2 36
7 106 10 155 3 50 8 108 10 130 2 22 7 71 10 108 l7 69 -164 -6 c-89 -4 -217
-9 -283 -11 -212 -8 -901 -25 -1650 -41 -618 -13 -1385 -6 -2305 21 -74 2
-232 7 -350 10 -118 3 -269 8 -335 10 -66 2 -218 7 -337 10 l-216 6 3 -28z"/>
</g>
</svg>
